<?xml version="1.0" encoding="utf-8"?>
<!-- Generator: Adobe Illustrator 16.0.0, SVG Export Plug-In . SVG Version: 6.00 Build 0)  -->
<!DOCTYPE svg PUBLIC "-//W3C//DTD SVG 1.1//EN" "http://www.w3.org/Graphics/SVG/1.1/DTD/svg11.dtd">
<svg version="1.1" id="Warstwa_1" xmlns="http://www.w3.org/2000/svg" xmlns:xlink="http://www.w3.org/1999/xlink" x="0px" y="0px"
	 width="1228px" height="250px" viewBox="0 0 1228 250" enable-background="new 0 0 1228 250" xml:space="preserve">
<g>
	<path fill="#000000" d="M523.149,154.904l32.724-65.922l18.459,95.729h-14.824l-9.649-53.033l-26.71,54.779l-26.711-54.779
		l-9.649,53.033h-14.824l18.459-95.729L523.149,154.904z"/>
	<path fill="#000000" d="M645.52,184.711h-14.264v-39.607l-30.208-54.376h15.803l21.535,40.815l21.537-40.815h15.803l-30.207,54.376
		V184.711z"/>
	<path fill="#000000" d="M779.638,90.728h14.265v40.413h38.178V90.728h14.265v93.983H832.08v-41.486h-38.178v41.486h-14.265V90.728z
		"/>
	<path fill="#000000" d="M939.488,89.116c27.829,0,50.205,21.75,50.205,48.737c0,26.853-22.376,48.604-50.205,48.604
		c-27.83,0-50.205-21.751-50.205-48.604C889.283,110.867,911.658,89.116,939.488,89.116z M939.488,173.03
		c19.158,0,34.821-15.843,34.821-35.177c0-19.468-15.663-35.311-34.821-35.311c-19.16,0-34.822,15.843-34.822,35.311
		C904.666,157.188,920.328,173.03,939.488,173.03z"/>
	<path fill="#000000" d="M1074.586,154.904l32.725-65.922l18.459,95.729h-14.824l-9.648-53.033l-26.711,54.779l-26.711-54.779
		l-9.649,53.033h-14.823l18.459-95.729L1074.586,154.904z"/>
	<path fill="#000000" d="M1171.084,90.728h57.059v13.158h-42.793v22.691h40.834v12.889h-40.834v31.82h43.631v13.426h-57.896V90.728z
		"/>
	<polygon fill="#00ADEE" points="380.761,100.031 280.761,0.031 202.678,78.114 219.178,94.615 280.761,33.031 357.428,109.697 
		357.428,226.696 204.095,226.696 204.095,177.031 180.761,177.031 180.761,250.03 380.761,250.03 380.761,100.275 380.517,100.275 
			"/>
</g>
</svg>
